<mxfile host="app.diagrams.net" modified="2020-11-25T13:19:56.663Z" agent="5.0 (Macintosh; Intel Mac OS X 11_0_0) AppleWebKit/537.36 (KHTML, like Gecko) Chrome/86.0.4240.193 Safari/537.36" etag="HbIyQ_lfXRFTmcJ5DcmN" version="13.10.2" type="github">
  <diagram name="Page-1" id="13e1069c-82ec-6db2-03f1-153e76fe0fe0">
    <mxGraphModel dx="1186" dy="655" grid="1" gridSize="10" guides="1" tooltips="1" connect="1" arrows="1" fold="1" page="1" pageScale="1" pageWidth="1100" pageHeight="850" background="#ffffff" math="0" shadow="0">
      <root>
        <mxCell id="0" />
        <mxCell id="1" parent="0" />
        <mxCell id="n2PzgUONvgYv11lpI5Y5-29" value="" style="rounded=1;whiteSpace=wrap;html=1;absoluteArcSize=1;arcSize=14;strokeWidth=2;" vertex="1" parent="1">
          <mxGeometry x="330" y="320" width="680" height="310" as="geometry" />
        </mxCell>
        <mxCell id="n2PzgUONvgYv11lpI5Y5-4" style="edgeStyle=orthogonalEdgeStyle;rounded=0;orthogonalLoop=1;jettySize=auto;html=1;entryX=0;entryY=0.5;entryDx=0;entryDy=0;" edge="1" parent="1" source="n2PzgUONvgYv11lpI5Y5-1" target="n2PzgUONvgYv11lpI5Y5-2">
          <mxGeometry relative="1" as="geometry" />
        </mxCell>
        <mxCell id="n2PzgUONvgYv11lpI5Y5-1" value="Data source" style="strokeWidth=2;html=1;shape=mxgraph.flowchart.database;whiteSpace=wrap;" vertex="1" parent="1">
          <mxGeometry x="60" y="120" width="60" height="60" as="geometry" />
        </mxCell>
        <mxCell id="n2PzgUONvgYv11lpI5Y5-20" style="edgeStyle=orthogonalEdgeStyle;rounded=0;orthogonalLoop=1;jettySize=auto;html=1;" edge="1" parent="1" source="n2PzgUONvgYv11lpI5Y5-2" target="n2PzgUONvgYv11lpI5Y5-19">
          <mxGeometry relative="1" as="geometry" />
        </mxCell>
        <mxCell id="n2PzgUONvgYv11lpI5Y5-2" value="Findout error records" style="rounded=1;whiteSpace=wrap;html=1;absoluteArcSize=1;arcSize=14;strokeWidth=2;" vertex="1" parent="1">
          <mxGeometry x="210" y="100" width="100" height="100" as="geometry" />
        </mxCell>
        <mxCell id="n2PzgUONvgYv11lpI5Y5-8" style="edgeStyle=orthogonalEdgeStyle;rounded=0;orthogonalLoop=1;jettySize=auto;html=1;entryX=0;entryY=0.5;entryDx=0;entryDy=0;" edge="1" parent="1" source="n2PzgUONvgYv11lpI5Y5-3" target="n2PzgUONvgYv11lpI5Y5-6">
          <mxGeometry relative="1" as="geometry" />
        </mxCell>
        <mxCell id="n2PzgUONvgYv11lpI5Y5-10" value="Yes" style="edgeLabel;html=1;align=center;verticalAlign=middle;resizable=0;points=[];" vertex="1" connectable="0" parent="n2PzgUONvgYv11lpI5Y5-8">
          <mxGeometry x="-0.1429" y="-2" relative="1" as="geometry">
            <mxPoint as="offset" />
          </mxGeometry>
        </mxCell>
        <mxCell id="n2PzgUONvgYv11lpI5Y5-9" style="edgeStyle=orthogonalEdgeStyle;rounded=0;orthogonalLoop=1;jettySize=auto;html=1;entryX=0;entryY=0.5;entryDx=0;entryDy=0;" edge="1" parent="1" source="n2PzgUONvgYv11lpI5Y5-3" target="n2PzgUONvgYv11lpI5Y5-7">
          <mxGeometry relative="1" as="geometry">
            <Array as="points">
              <mxPoint x="440" y="560" />
            </Array>
          </mxGeometry>
        </mxCell>
        <mxCell id="n2PzgUONvgYv11lpI5Y5-11" value="No" style="edgeLabel;html=1;align=center;verticalAlign=middle;resizable=0;points=[];" vertex="1" connectable="0" parent="n2PzgUONvgYv11lpI5Y5-9">
          <mxGeometry x="0.4455" y="1" relative="1" as="geometry">
            <mxPoint as="offset" />
          </mxGeometry>
        </mxCell>
        <mxCell id="n2PzgUONvgYv11lpI5Y5-3" value="Has Parent" style="strokeWidth=2;html=1;shape=mxgraph.flowchart.decision;whiteSpace=wrap;" vertex="1" parent="1">
          <mxGeometry x="390" y="360" width="100" height="100" as="geometry" />
        </mxCell>
        <mxCell id="n2PzgUONvgYv11lpI5Y5-16" value="Return Parent" style="edgeStyle=orthogonalEdgeStyle;rounded=0;orthogonalLoop=1;jettySize=auto;html=1;" edge="1" parent="1" source="n2PzgUONvgYv11lpI5Y5-6">
          <mxGeometry relative="1" as="geometry">
            <mxPoint x="610" y="500" as="targetPoint" />
          </mxGeometry>
        </mxCell>
        <mxCell id="n2PzgUONvgYv11lpI5Y5-6" value="Find Parent,&amp;nbsp;" style="rounded=1;whiteSpace=wrap;html=1;absoluteArcSize=1;arcSize=14;strokeWidth=2;" vertex="1" parent="1">
          <mxGeometry x="560" y="360" width="100" height="100" as="geometry" />
        </mxCell>
        <mxCell id="n2PzgUONvgYv11lpI5Y5-17" style="edgeStyle=orthogonalEdgeStyle;rounded=0;orthogonalLoop=1;jettySize=auto;html=1;" edge="1" parent="1" source="n2PzgUONvgYv11lpI5Y5-7" target="n2PzgUONvgYv11lpI5Y5-13">
          <mxGeometry relative="1" as="geometry" />
        </mxCell>
        <mxCell id="n2PzgUONvgYv11lpI5Y5-18" value="Return Parent and Children" style="edgeLabel;html=1;align=center;verticalAlign=middle;resizable=0;points=[];" vertex="1" connectable="0" parent="n2PzgUONvgYv11lpI5Y5-17">
          <mxGeometry x="-0.6115" y="-3" relative="1" as="geometry">
            <mxPoint x="45" y="-3" as="offset" />
          </mxGeometry>
        </mxCell>
        <mxCell id="n2PzgUONvgYv11lpI5Y5-7" value="Find Children" style="rounded=1;whiteSpace=wrap;html=1;absoluteArcSize=1;arcSize=14;strokeWidth=2;" vertex="1" parent="1">
          <mxGeometry x="560" y="510" width="100" height="100" as="geometry" />
        </mxCell>
        <mxCell id="n2PzgUONvgYv11lpI5Y5-31" style="edgeStyle=orthogonalEdgeStyle;shape=arrow;rounded=0;orthogonalLoop=1;jettySize=auto;html=1;entryX=0.64;entryY=1.02;entryDx=0;entryDy=0;entryPerimeter=0;exitX=0.5;exitY=0;exitDx=0;exitDy=0;" edge="1" parent="1" source="n2PzgUONvgYv11lpI5Y5-13" target="n2PzgUONvgYv11lpI5Y5-21">
          <mxGeometry relative="1" as="geometry" />
        </mxCell>
        <mxCell id="n2PzgUONvgYv11lpI5Y5-13" value="Sort by timestamp" style="rounded=1;whiteSpace=wrap;html=1;absoluteArcSize=1;arcSize=14;strokeWidth=2;" vertex="1" parent="1">
          <mxGeometry x="840" y="510" width="100" height="100" as="geometry" />
        </mxCell>
        <mxCell id="n2PzgUONvgYv11lpI5Y5-22" style="edgeStyle=orthogonalEdgeStyle;rounded=0;orthogonalLoop=1;jettySize=auto;html=1;entryX=0;entryY=0.5;entryDx=0;entryDy=0;" edge="1" parent="1" source="n2PzgUONvgYv11lpI5Y5-19" target="n2PzgUONvgYv11lpI5Y5-21">
          <mxGeometry relative="1" as="geometry" />
        </mxCell>
        <mxCell id="n2PzgUONvgYv11lpI5Y5-19" value="Find all records in +/- 20k records with same traceid" style="rounded=1;whiteSpace=wrap;html=1;absoluteArcSize=1;arcSize=14;strokeWidth=2;" vertex="1" parent="1">
          <mxGeometry x="390" y="100" width="100" height="100" as="geometry" />
        </mxCell>
        <mxCell id="n2PzgUONvgYv11lpI5Y5-24" style="edgeStyle=orthogonalEdgeStyle;rounded=0;orthogonalLoop=1;jettySize=auto;html=1;" edge="1" parent="1" source="n2PzgUONvgYv11lpI5Y5-21" target="n2PzgUONvgYv11lpI5Y5-23">
          <mxGeometry relative="1" as="geometry" />
        </mxCell>
        <mxCell id="n2PzgUONvgYv11lpI5Y5-30" style="edgeStyle=orthogonalEdgeStyle;shape=arrow;rounded=0;orthogonalLoop=1;jettySize=auto;html=1;entryX=0.5;entryY=0;entryDx=0;entryDy=0;entryPerimeter=0;exitX=0.5;exitY=1;exitDx=0;exitDy=0;" edge="1" parent="1" source="n2PzgUONvgYv11lpI5Y5-21" target="n2PzgUONvgYv11lpI5Y5-3">
          <mxGeometry relative="1" as="geometry" />
        </mxCell>
        <mxCell id="n2PzgUONvgYv11lpI5Y5-21" value="Sorting" style="rounded=1;whiteSpace=wrap;html=1;absoluteArcSize=1;arcSize=14;strokeWidth=2;" vertex="1" parent="1">
          <mxGeometry x="560" y="100" width="100" height="100" as="geometry" />
        </mxCell>
        <mxCell id="n2PzgUONvgYv11lpI5Y5-26" style="edgeStyle=orthogonalEdgeStyle;rounded=0;orthogonalLoop=1;jettySize=auto;html=1;" edge="1" parent="1" source="n2PzgUONvgYv11lpI5Y5-23" target="n2PzgUONvgYv11lpI5Y5-25">
          <mxGeometry relative="1" as="geometry" />
        </mxCell>
        <mxCell id="n2PzgUONvgYv11lpI5Y5-23" value="CheckSum" style="rounded=1;whiteSpace=wrap;html=1;absoluteArcSize=1;arcSize=14;strokeWidth=2;" vertex="1" parent="1">
          <mxGeometry x="730" y="100" width="100" height="100" as="geometry" />
        </mxCell>
        <mxCell id="n2PzgUONvgYv11lpI5Y5-25" value="Return result" style="rounded=1;whiteSpace=wrap;html=1;absoluteArcSize=1;arcSize=14;strokeWidth=2;" vertex="1" parent="1">
          <mxGeometry x="880" y="100" width="100" height="100" as="geometry" />
        </mxCell>
      </root>
    </mxGraphModel>
  </diagram>
</mxfile>
